<svg width="512" height="512" viewBox="0 0 512 512" fill="none" xmlns="http://www.w3.org/2000/svg">
<path d="M504.153 460.607L388.085 344.54C416.029 307.339 431.114 262.058 431.063 215.532C431.063 96.6882 334.375 0 215.532 0C96.6882 0 0 96.6882 0 215.532C0 334.375 96.6882 431.063 215.532 431.063C262.058 431.114 307.339 416.029 344.54 388.085L460.607 504.153C466.483 509.405 474.146 512.208 482.023 511.988C489.901 511.767 497.395 508.54 502.967 502.967C508.54 497.395 511.767 489.901 511.988 482.023C512.208 474.146 509.405 466.483 504.153 460.607ZM61.5804 215.532C61.5804 185.083 70.6095 155.318 87.5259 130.001C104.442 104.684 128.486 84.9515 156.617 73.2993C184.748 61.6471 215.702 58.5983 245.566 64.5386C275.429 70.4788 302.861 85.1412 324.391 106.672C345.922 128.202 360.584 155.634 366.524 185.497C372.465 215.361 369.416 246.315 357.764 274.446C346.112 302.577 326.379 326.621 301.062 343.537C275.745 360.454 245.98 369.483 215.532 369.483C174.716 369.434 135.587 353.198 106.726 324.337C77.8649 295.476 61.6294 256.347 61.5804 215.532Z" fill="white"/>
</svg>
