<svg width="18" height="18" viewBox="0 0 18 18" fill="none" xmlns="http://www.w3.org/2000/svg">
<path d="M8.99984 0.666626C11.264 0.666626 11.5465 0.674959 12.4348 0.716626C13.3223 0.758293 13.9265 0.897459 14.4582 1.10413C15.0082 1.31579 15.4715 1.60246 15.9348 2.06496C16.3586 2.48154 16.6865 2.98545 16.8957 3.54163C17.1015 4.07246 17.2415 4.67746 17.2832 5.56496C17.3223 6.45329 17.3332 6.73579 17.3332 8.99996C17.3332 11.2641 17.3248 11.5466 17.2832 12.435C17.2415 13.3225 17.1015 13.9266 16.8957 14.4583C16.6871 15.0148 16.3591 15.5188 15.9348 15.935C15.5181 16.3586 15.0143 16.6864 14.4582 16.8958C13.9273 17.1016 13.3223 17.2416 12.4348 17.2833C11.5465 17.3225 11.264 17.3333 8.99984 17.3333C6.73567 17.3333 6.45317 17.325 5.56484 17.2833C4.67734 17.2416 4.07317 17.1016 3.5415 16.8958C2.98511 16.687 2.48111 16.3591 2.06484 15.935C1.64101 15.5184 1.31311 15.0145 1.104 14.4583C0.897337 13.9275 0.758171 13.3225 0.716504 12.435C0.677337 11.5466 0.666504 11.2641 0.666504 8.99996C0.666504 6.73579 0.674837 6.45329 0.716504 5.56496C0.758171 4.67663 0.897337 4.07329 1.104 3.54163C1.31253 2.98511 1.64051 2.48106 2.06484 2.06496C2.48123 1.64099 2.98519 1.31307 3.5415 1.10413C4.07317 0.897459 4.6765 0.758293 5.56484 0.716626C6.45317 0.677459 6.73567 0.666626 8.99984 0.666626ZM8.99984 4.83329C7.89477 4.83329 6.83496 5.27228 6.05356 6.05368C5.27216 6.83508 4.83317 7.89489 4.83317 8.99996C4.83317 10.105 5.27216 11.1648 6.05356 11.9462C6.83496 12.7276 7.89477 13.1666 8.99984 13.1666C10.1049 13.1666 11.1647 12.7276 11.9461 11.9462C12.7275 11.1648 13.1665 10.105 13.1665 8.99996C13.1665 7.89489 12.7275 6.83508 11.9461 6.05368C11.1647 5.27228 10.1049 4.83329 8.99984 4.83329V4.83329ZM14.4165 4.62496C14.4165 4.34869 14.3068 4.08374 14.1114 3.88839C13.9161 3.69304 13.6511 3.58329 13.3748 3.58329C13.0986 3.58329 12.8336 3.69304 12.6383 3.88839C12.4429 4.08374 12.3332 4.34869 12.3332 4.62496C12.3332 4.90123 12.4429 5.16618 12.6383 5.36153C12.8336 5.55688 13.0986 5.66663 13.3748 5.66663C13.6511 5.66663 13.9161 5.55688 14.1114 5.36153C14.3068 5.16618 14.4165 4.90123 14.4165 4.62496ZM8.99984 6.49996C9.66288 6.49996 10.2988 6.76335 10.7676 7.23219C11.2364 7.70103 11.4998 8.33692 11.4998 8.99996C11.4998 9.663 11.2364 10.2989 10.7676 10.7677C10.2988 11.2366 9.66288 11.5 8.99984 11.5C8.3368 11.5 7.70091 11.2366 7.23207 10.7677C6.76323 10.2989 6.49984 9.663 6.49984 8.99996C6.49984 8.33692 6.76323 7.70103 7.23207 7.23219C7.70091 6.76335 8.3368 6.49996 8.99984 6.49996V6.49996Z" fill="white"/>
</svg>
