<svg width="463" height="463" viewBox="0 0 463 463" fill="none" xmlns="http://www.w3.org/2000/svg">
<path d="M18.4596 444.484C-5.14391 420.88 -5.1439 382.611 18.4596 359.008L359.508 17.9594C383.112 -5.64414 421.38 -5.6441 444.984 17.9594V17.9594C468.587 41.5629 468.587 79.8317 444.984 103.435L103.935 444.484C80.3318 468.087 42.0631 468.087 18.4596 444.484V444.484Z" fill="black"/>
<path d="M18.4596 17.9594C42.0631 -5.6441 80.3319 -5.64409 103.935 17.9594L444.984 359.008C468.587 382.611 468.587 420.88 444.984 444.484V444.484C421.38 468.087 383.111 468.087 359.508 444.484L18.4595 103.435C-5.14396 79.8317 -5.14392 41.5629 18.4596 17.9594V17.9594Z" fill="black"/>
</svg>
