<svg width="366" height="439" viewBox="0 0 366 439" fill="none" xmlns="http://www.w3.org/2000/svg">
<path d="M183 438.429H179.343C177.514 438.429 0.142822 396.371 0.142822 200.714V91C0.142822 83.6857 3.79996 76.3714 11.1142 74.5429L175.686 1.39999C181.171 -0.428578 186.657 -0.428578 190.314 1.39999L354.886 74.5429C362.2 76.3714 365.857 83.6857 365.857 91V200.714C365.857 396.371 188.486 438.429 186.657 438.429H183ZM183 237.286C129.971 237.286 91.5714 261.057 91.5714 292.143C91.5714 323.229 129.971 347 183 347C236.029 347 274.429 323.229 274.429 292.143C274.429 261.057 236.029 237.286 183 237.286ZM183 91C151.914 91 128.143 114.771 128.143 145.857C128.143 176.943 151.914 200.714 183 200.714C214.086 200.714 237.857 176.943 237.857 145.857C237.857 114.771 214.086 91 183 91Z" fill="black"/>
</svg>
