<svg width="512" height="512" viewBox="0 0 512 512" fill="none" xmlns="http://www.w3.org/2000/svg">
<path d="M409.6 409.6C381.184 409.6 358.4 432.384 358.4 460.8C358.4 474.379 363.794 487.402 373.396 497.004C382.998 506.606 396.021 512 409.6 512C423.179 512 436.202 506.606 445.804 497.004C455.406 487.402 460.8 474.379 460.8 460.8C460.8 447.221 455.406 434.198 445.804 424.596C436.202 414.994 423.179 409.6 409.6 409.6ZM0 0V51.2H51.2L143.36 245.504L108.544 308.224C104.704 315.392 102.4 323.84 102.4 332.8C102.4 346.379 107.794 359.402 117.396 369.004C126.998 378.606 140.021 384 153.6 384H460.8V332.8H164.352C162.655 332.8 161.027 332.126 159.827 330.925C158.626 329.725 157.952 328.097 157.952 326.4C157.952 325.12 158.208 324.096 158.72 323.328L181.76 281.6H372.48C391.68 281.6 408.576 270.848 417.28 255.232L508.928 89.6C510.72 85.504 512 81.152 512 76.8C512 70.0105 509.303 63.499 504.502 58.6981C499.701 53.8971 493.19 51.2 486.4 51.2H107.776L83.712 0M153.6 409.6C125.184 409.6 102.4 432.384 102.4 460.8C102.4 474.379 107.794 487.402 117.396 497.004C126.998 506.606 140.021 512 153.6 512C167.179 512 180.202 506.606 189.804 497.004C199.406 487.402 204.8 474.379 204.8 460.8C204.8 447.221 199.406 434.198 189.804 424.596C180.202 414.994 167.179 409.6 153.6 409.6Z" fill="black"/>
</svg>
